<svg width="4500" height="1500" viewBox="0 0 4500 1500" fill="none" xmlns="http://www.w3.org/2000/svg">
<path d="M1314.44 283.195L1459.73 77.0231L1278.51 241.183C1143.93 93.3612 951.232 0 737.129 0C330.332 0 0 336.1 0 750.002C0 1164.68 330.332 1500 737.129 1500C1144.69 1500 1474.26 1163.9 1474.26 750.002C1475.02 573.393 1414.61 411.566 1314.44 283.195ZM1250.21 998.186C1250.21 1149.9 1129.4 1272.05 981.054 1272.05H493.967C344.862 1272.05 224.809 1149.12 224.809 998.186V502.593C224.809 350.88 345.624 228.735 493.967 228.735H981.054C1063.64 228.735 1137.04 266.079 1185.98 325.208L734.835 735.217L428.207 523.6L649.958 957.73C651.486 960.061 653.018 962.397 655.312 964.732C656.074 966.286 656.84 967.064 657.606 968.622C659.9 971.734 661.428 974.847 664.488 977.179C666.782 979.514 669.076 981.068 671.37 983.404C699.66 1009.08 737.129 1017.63 772.301 1009.08H773.067C779.183 1007.52 785.303 1005.19 791.419 1002.08C792.185 1001.3 792.947 1001.3 794.479 1000.52C799.829 998.186 804.417 995.073 809.771 991.183C811.299 990.406 812.831 988.848 814.359 988.071C816.653 986.516 819.713 984.958 822.007 982.626C823.535 981.068 825.063 978.737 826.595 977.179C827.357 976.401 828.123 975.624 828.889 974.847L831.183 971.734C834.239 967.844 837.299 963.955 839.593 960.061L1231.1 401.451C1243.33 432.573 1250.21 466.804 1250.21 502.593V998.186Z" fill="#0070E0"/>
<path d="M2440.78 1288.38C2104.33 1288.38 1878.76 1071.31 1878.76 749.217C1878.76 431.791 2109.69 210.059 2440.78 210.059C2659.47 210.059 2771.88 294.862 2800.93 320.536L2733.65 497.144C2690.06 460.578 2584.54 396.78 2455.31 396.78C2248.09 396.78 2108.92 536.823 2108.92 745.327C2108.92 949.168 2251.15 1092.32 2455.31 1092.32C2602.12 1092.32 2696.94 1033.19 2746.64 989.624L2819.29 1156.12C2726.76 1242.48 2599.07 1288.38 2440.78 1288.38Z" fill="#0070E0"/>
<path d="M3146.56 224.84H2922.52V1269.71H3146.56V224.84Z" fill="#0070E0"/>
<path d="M3315.55 1268.94V532.167H3539.6V1269.72H3315.55V1268.94ZM3427.95 411.576C3349.2 411.576 3297.96 367.227 3297.96 297.986C3297.96 230.299 3349.96 184.396 3427.95 184.396C3505.17 184.396 3557.95 230.299 3557.95 297.986C3557.19 366.45 3506.72 411.576 3427.95 411.576Z" fill="#0070E0"/>
<path d="M4079.42 1286.84C3827.09 1286.84 3657.37 1132.79 3657.37 903.277C3657.37 672.988 3827.09 518.163 4079.42 518.163C4331 518.163 4500 672.988 4500 903.277C4499.24 1132.79 4330.24 1286.84 4079.42 1286.84ZM4079.42 683.099C3963.21 683.099 3885.21 769.459 3885.21 898.61C3885.21 1027.76 3963.21 1114.12 4079.42 1114.12C4195.68 1114.12 4273.67 1027.76 4273.67 898.61C4273.67 769.459 4195.68 683.099 4079.42 683.099Z" fill="#0070E0"/>
</svg>
