<?xml version="1.0" encoding="utf-8"?>
<!-- Generator: Adobe Illustrator 25.2.2, SVG Export Plug-In . SVG Version: 6.00 Build 0)  -->
<svg version="1.1" id="Layer_1" xmlns="http://www.w3.org/2000/svg" xmlns:xlink="http://www.w3.org/1999/xlink" x="0px" y="0px"
	 viewBox="0 0 2603.75 858.59" style="enable-background:new 0 0 2603.75 858.59;" xml:space="preserve">
<style type="text/css">
	.st0{fill:#0070E0;}
</style>
<g>
	<path class="st0" d="M762.04,163.74L845.7,46.63L741.45,139.7C663.67,55.66,552.47,3,428.94,3C193.82,3,3.23,193.6,3.23,428.73
		c0,235.13,190.59,425.73,425.71,425.73c235.13,0,425.76-190.61,425.76-425.73C854.7,328.52,819.98,236.47,762.04,163.74z
		 M725.17,569.37c0,85.93-69.65,155.59-155.59,155.59H288.3c-85.92,0-155.59-69.66-155.59-155.59V288.1
		c0-85.95,69.67-155.6,155.59-155.6h281.28c47.49,0,89.93,21.33,118.47,54.87L427.29,420.16l-176.63-120.1l127.86,246.24
		c0.8,1.35,1.95,2.55,2.87,3.86c0.5,0.68,0.97,1.34,1.51,2.01c1.26,1.69,2.3,3.48,3.78,5.06c1.22,1.32,2.68,2.31,4.02,3.51
		c0.02,0.05,0.06,0.08,0.06,0.08c0.08,0.07,0.13,0.09,0.15,0.13c16.26,14.59,38.04,19.55,58.21,14.55c0.19-0.04,0.39-0.09,0.59-0.15
		c3.64-0.92,7.17-2.18,10.63-3.78c0.55-0.24,1.1-0.52,1.62-0.77c3.05-1.5,5.96-3.22,8.79-5.24c0.89-0.61,1.72-1.29,2.6-1.97
		c1.41-1.1,2.91-1.97,4.23-3.22c1.02-0.94,1.75-2.05,2.68-3.04c0.44-0.46,0.95-0.79,1.39-1.25l1.41-1.92
		c1.8-2.18,3.46-4.42,4.94-6.78l226.16-316.59c7.04,17.75,11.03,37.05,11.03,57.31V569.37z"/>
	<g>
		<g id="Logotype_3_">
			<path class="st0" d="M1412.51,733.9c-194.19,0-324.67-123.02-324.67-306.1c0-180.24,133.52-306.1,324.67-306.1
				c126.05,0,191.26,48.17,207.84,62.49l-39,100.34c-25.1-20.69-86-56.97-160.54-56.97c-119.53,0-199.85,79.4-199.85,197.57
				c0,115.81,82.17,196.69,199.85,196.69c84.96,0,139.46-33.44,168.33-58.48l42.07,94.27
				C1577.47,708.24,1503.92,733.9,1412.51,733.9z"/>
			<rect x="1690.72" y="130.56" class="st0" width="129.42" height="592.7"/>
			<path class="st0" d="M1917.48,723.26V304.94h129.44v418.32H1917.48z M1982.19,236.42c-45.47,0-74.85-25.29-74.85-64.43
				c0-38.55,30.09-64.45,74.85-64.45c44.76,0,74.85,25.89,74.85,64.45C2057.05,211.13,2027.66,236.42,1982.19,236.42z"/>
			<path class="st0" d="M2358.29,733c-145.67,0-243.53-87.43-243.53-217.57c0-130.66,97.87-218.46,243.53-218.46
				c145.12,0,242.62,87.8,242.62,218.46C2600.91,645.57,2503.41,733,2358.29,733z M2358.29,390.45
				c-67.16,0-112.28,49.16-112.28,122.33c0,73.16,45.12,122.33,112.28,122.33c67.16,0,112.28-49.17,112.28-122.33
				C2470.57,439.6,2425.46,390.45,2358.29,390.45z"/>
		</g>
	</g>
</g>
</svg>
