<svg width="908" height="340" viewBox="0 0 908 340" fill="none" xmlns="http://www.w3.org/2000/svg">
<rect x="112.421" y="114.223" width="681.894" height="111.845" stroke="#E0E0EB" stroke-width="1.54027"/>
<rect x="0.770133" y="0.770133" width="906.46" height="338.46" stroke="#E0E0EB" stroke-width="1.54027"/>
<g clip-path="url(#clip0_540_4365)">
<path d="M795.081 177.742V223.72H778.248V180.799C778.248 170.333 773.749 164.503 765.027 164.503C756.304 164.503 750.504 170.618 748.901 180.938C748.461 183.407 748.323 187.181 748.323 195.195V223.711H731.49V150.677H746.41C746.444 151.334 746.806 157.862 746.832 158.251C746.858 158.778 747.47 159.046 747.883 158.717C754.089 153.795 760.898 149.227 770.396 149.227C785.919 149.227 795.081 159.849 795.081 177.742Z" fill="black"/>
<path d="M704.251 150.717L703.7 159.051C703.665 159.586 703.027 159.854 702.631 159.5C700.606 157.548 693.047 149.258 680.282 149.258C661.984 149.258 648.487 165.105 648.478 186.617H648.461C648.461 208.431 661.82 224.295 680.273 224.295C692.573 224.295 700.123 216.307 701.502 214.519C701.898 214.036 702.666 214.321 702.648 214.942C702.493 217.171 702.157 222.741 700.321 227.473C698.003 233.458 692.745 239.002 682.161 239.002C673.456 239.002 665.768 235.66 658.493 228.535L649.788 240.617C657.769 249.65 670.396 254.745 684.057 254.745C706.122 254.745 719.343 239.607 719.343 214.873V150.717H704.251ZM683.928 209.044C673.042 209.044 665.337 199.596 665.337 186.643C665.337 173.689 673.042 164.517 683.928 164.517C694.814 164.517 702.51 173.68 702.51 186.643C702.51 199.605 694.805 209.044 683.928 209.044Z" fill="black"/>
<path d="M613.325 202.066C613.325 215.901 601.698 225.211 584.71 225.211C571.351 225.211 559.474 219.986 552.329 212.576L552.346 212.559H552.32L557.862 199.337C563.215 204.182 571.859 211.117 584.15 211.117C592.726 211.117 597.656 207.334 597.656 202.524C597.656 196.988 590.821 195.529 582.694 193.923C571.075 191.461 555.69 187.524 555.69 171.659C555.69 158.412 566.438 149.258 582.263 149.258C594.45 149.258 604.922 153.913 612.162 160.027L603.87 171.668C596.898 166.141 589.502 163.369 582.228 163.369C574.954 163.369 571.351 166.435 571.351 170.796C571.351 176.91 579.203 178.516 585.012 179.673C599.535 182.575 613.325 186.954 613.325 202.066Z" fill="black"/>
<path d="M366.878 149.227C346.27 149.227 331.463 165.246 331.463 187.207C331.463 209.168 346.262 225.188 366.878 225.188C387.495 225.188 402.311 209.194 402.311 187.207C402.311 165.22 387.486 149.227 366.878 149.227ZM366.878 209.911C356.001 209.911 348.296 200.602 348.296 187.207C348.296 173.813 355.846 164.503 366.878 164.503C377.91 164.503 385.461 173.822 385.461 187.207C385.461 200.593 377.764 209.911 366.878 209.911Z" fill="black"/>
<path d="M408.242 187.207C408.242 165.523 423.05 149.227 442.813 149.227C458.499 149.227 469.971 157.094 475.332 171.93L460.378 177.604C456.319 168.441 450.94 164.512 442.804 164.512C432.642 164.512 425.092 174.115 425.092 187.216C425.092 200.317 432.634 209.92 442.804 209.92C450.94 209.92 456.301 205.982 460.378 196.828L475.332 202.501C469.971 217.338 458.499 225.205 442.813 225.205C423.075 225.205 408.242 208.909 408.242 187.225V187.181V187.199V187.207Z" fill="black"/>
<path d="M318.164 116.789C317.854 116.789 317.544 116.867 317.259 117.014L306.253 122.826C306.038 122.938 305.908 123.162 305.908 123.404V158.198C305.908 158.777 305.236 159.045 304.805 158.656C303.193 157.231 299.392 153.682 294.109 151.246C291.377 149.985 287.326 149.243 283.689 149.243C265.253 149.243 251.885 165.262 251.885 187.223C251.885 209.185 265.244 225.178 283.689 225.178C293.394 225.178 300.642 220.092 305.072 215.558C305.374 215.247 305.538 215.074 305.805 214.781C306.193 214.366 306.891 214.608 306.925 215.178L307.503 223.719H322.75V117.229C322.75 116.988 322.552 116.789 322.31 116.789H318.164ZM287.326 209.919C276.294 209.919 268.743 200.609 268.743 187.215C268.743 173.821 276.449 164.511 287.326 164.511C298.203 164.511 305.908 173.829 305.908 187.215C305.908 200.6 298.367 209.919 287.326 209.919Z" fill="black"/>
<path d="M633.169 150.924L622.585 156.52C622.369 156.632 622.24 156.857 622.24 157.098V223.716H639.082V151.14C639.082 150.898 638.883 150.699 638.642 150.699H634.074C633.755 150.699 633.453 150.777 633.169 150.924Z" fill="black"/>
<path d="M630.663 138.85C636.274 138.85 640.816 134.299 640.816 128.677C640.816 123.055 636.274 118.504 630.663 118.504C625.052 118.504 620.51 123.055 620.51 128.677C620.51 134.299 625.052 138.85 630.663 138.85Z" fill="black"/>
<path d="M194.553 195.157V224.062C194.553 225.59 193.312 226.834 191.786 226.834H115.991C114.466 226.834 113.225 225.59 113.225 224.062V148.1C113.225 146.572 114.466 145.328 115.991 145.328H144.822V192.394C144.822 193.922 146.063 195.166 147.588 195.166H194.562L194.553 195.157Z" fill="#4C00FF"/>
<path d="M226.168 154.404C226.168 178.731 212.024 195.113 194.554 195.165V164.542C194.554 163.661 194.2 162.815 193.58 162.193L177.729 146.312C177.109 145.69 176.264 145.336 175.385 145.336H144.822V116.44C144.822 114.912 146.063 113.668 147.589 113.668H190.356C210.611 113.668 226.168 130.033 226.168 154.404Z" fill="#FF5252"/>
<path d="M193.58 162.194C194.201 162.816 194.554 163.662 194.554 164.543V195.166H147.581C146.056 195.166 144.814 193.922 144.814 192.394V145.328H175.377C176.256 145.328 177.101 145.682 177.722 146.304L193.58 162.194Z" fill="black"/>
<path d="M546.223 150.68V190.353C546.223 220.423 529.407 225.19 514.41 225.19C499.413 225.19 482.598 220.423 482.598 190.353V150.68H499.413V194.574C499.413 198.866 500.491 209.922 514.41 209.922C528.33 209.922 529.407 198.866 529.407 194.574V150.68H546.223Z" fill="black"/>
</g>
<path d="M794.315 0.770133H907.217V114.36H794.315V0.770133Z" fill="white" stroke="#E0E0EB" stroke-width="1.54027"/>
<path d="M794.317 226.09H907.219V339.217H794.317V226.09Z" fill="white" stroke="#E0E0EB" stroke-width="1.54027"/>
<path d="M0.770133 226.09H112.439V339.217H0.770133V226.09Z" fill="white" stroke="#E0E0EB" stroke-width="1.54027"/>
<path d="M0.770133 0.770133H112.439V114.205H0.770133V0.770133Z" fill="white" stroke="#E0E0EB" stroke-width="1.54027"/>
<path d="M851.944 60.5187L856.362 66.4648H854.285L850.87 61.641L847.431 66.4648H845.353L849.771 60.5187L845.473 54.7635H847.55L850.87 59.3724L854.165 54.7635H856.243L851.944 60.5187Z" fill="#AEABBB"/>
<path d="M57.5186 60.5187L61.9364 66.4648H59.8588L56.444 61.641L53.0052 66.4648H50.9276L55.3455 60.5187L51.047 54.7635H53.1246L56.444 59.3724L59.7394 54.7635H61.817L57.5186 60.5187Z" fill="#AEABBB"/>
<path d="M851.944 286.851L856.362 292.797H854.285L850.87 287.973L847.431 292.797H845.353L849.771 286.851L845.473 281.096H847.55L850.87 285.704L854.165 281.096H856.243L851.944 286.851Z" fill="#AEABBB"/>
<path d="M57.5186 286.851L61.9364 292.797H59.8588L56.444 287.973L53.0052 292.797H50.9276L55.3455 286.851L51.047 281.096H53.1246L56.444 285.704L59.7394 281.096H61.817L57.5186 286.851Z" fill="#AEABBB"/>
<defs>
<clipPath id="clip0_540_4365">
<rect width="681.854" height="141.076" fill="white" transform="translate(113.227 113.672)"/>
</clipPath>
</defs>
</svg>
