
      <svg data-logo="logo" xmlns="http://www.w3.org/2000/svg" viewBox="0 0 157 42">
        <g id="logogram" transform="translate(0, 1) rotate(0) "><path d="M15 0L20.4545 5.33333L0 25.3333V14.6667L15 0Z" fill="#0D968B"/><path d="M2.90827 28.177L15 40L30 25.3334V14.6667L20.4545 5.33337L0 25.3334L0.0041688 25.3375L20.4545 5.33337V20.6667L11.25 29.6667V20.1324L2.90827 28.177Z" fill="#0F1729"/></g>
        <g id="logotype" transform="translate(36, 11.5)"><path fill="#11111" d="M11.16 19L7.58 19L7.58 1.54L14.39 1.54Q16.38 1.54 17.78 2.29Q19.17 3.05 19.90 4.38Q20.64 5.71 20.64 7.43L20.64 7.43Q20.64 9.17 19.89 10.49Q19.15 11.80 17.74 12.55Q16.32 13.29 14.31 13.29L14.31 13.29L9.93 13.29L9.93 10.41L13.73 10.41Q14.84 10.41 15.54 10.03Q16.25 9.65 16.60 8.98Q16.95 8.31 16.95 7.43L16.95 7.43Q16.95 6.55 16.60 5.89Q16.25 5.22 15.54 4.86Q14.82 4.49 13.72 4.49L13.72 4.49L11.16 4.49L11.16 19ZM25.01 19L21.49 19L21.49 5.90L24.89 5.90L24.89 8.18L25.03 8.18Q25.39 6.96 26.24 6.34Q27.09 5.72 28.19 5.72L28.19 5.72Q28.46 5.72 28.77 5.75Q29.08 5.78 29.33 5.84L29.33 5.84L29.33 8.98Q29.10 8.90 28.65 8.85Q28.21 8.80 27.81 8.80L27.81 8.80Q27.01 8.80 26.37 9.15Q25.72 9.50 25.36 10.11Q25.01 10.73 25.01 11.55L25.01 11.55L25.01 19ZM33.36 19.26L33.36 19.26Q32.12 19.26 31.13 18.82Q30.14 18.38 29.57 17.51Q29.00 16.63 29.00 15.33L29.00 15.33Q29.00 14.24 29.41 13.50Q29.81 12.77 30.51 12.32Q31.20 11.88 32.09 11.64Q32.97 11.41 33.95 11.31L33.95 11.31Q35.08 11.20 35.78 11.10Q36.48 11.00 36.80 10.78Q37.12 10.56 37.12 10.14L37.12 10.14L37.12 10.08Q37.12 9.52 36.89 9.13Q36.65 8.75 36.20 8.54Q35.74 8.34 35.07 8.34L35.07 8.34Q34.39 8.34 33.89 8.54Q33.38 8.75 33.07 9.09Q32.75 9.43 32.60 9.85L32.60 9.85L29.38 9.31Q29.72 8.17 30.50 7.38Q31.29 6.58 32.45 6.16Q33.62 5.73 35.07 5.73L35.07 5.73Q36.14 5.73 37.13 5.99Q38.13 6.24 38.92 6.77Q39.71 7.29 40.17 8.14Q40.64 8.98 40.64 10.18L40.64 10.18L40.64 19L37.31 19L37.31 17.18L37.19 17.18Q36.88 17.79 36.35 18.26Q35.82 18.72 35.08 18.99Q34.33 19.26 33.36 19.26ZM34.36 16.79L34.36 16.79Q35.19 16.79 35.82 16.46Q36.44 16.13 36.79 15.57Q37.15 15.00 37.15 14.31L37.15 14.31L37.15 12.89Q36.99 13.01 36.68 13.11Q36.36 13.20 35.97 13.27Q35.59 13.34 35.21 13.40Q34.84 13.46 34.54 13.49L34.54 13.49Q33.90 13.59 33.41 13.80Q32.92 14.01 32.65 14.35Q32.38 14.70 32.38 15.24L32.38 15.24Q32.38 15.74 32.63 16.09Q32.89 16.43 33.33 16.61Q33.77 16.79 34.36 16.79ZM44.80 19L41.07 19L46.14 10.90L46.13 13.64L41.33 5.90L45.12 5.90L46.31 7.97Q46.87 8.98 47.32 9.97Q47.77 10.96 48.24 11.90L48.24 11.90L46.91 11.90Q47.39 10.97 47.83 9.98Q48.28 8.98 48.86 7.97L48.86 7.97L50.09 5.90L53.82 5.90L48.92 13.68L48.92 10.97L54.01 19L50.23 19L48.78 16.53Q48.21 15.53 47.74 14.54Q47.28 13.54 46.80 12.63L46.80 12.63L48.15 12.63Q47.69 13.54 47.25 14.54Q46.81 15.53 46.25 16.53L46.25 16.53L44.80 19ZM57.96 19L54.44 19L54.44 5.90L57.96 5.90L57.96 19ZM56.20 4.19L56.20 4.19Q55.40 4.19 54.84 3.66Q54.28 3.13 54.28 2.38L54.28 2.38Q54.28 1.63 54.84 1.11Q55.40 0.58 56.20 0.58L56.20 0.58Q56.99 0.58 57.56 1.10Q58.13 1.62 58.13 2.38L58.13 2.38Q58.13 3.13 57.56 3.66Q56.99 4.19 56.20 4.19ZM64.59 19.26L64.59 19.26Q63.00 19.26 61.79 18.81Q60.57 18.36 59.79 17.49Q59.02 16.63 58.80 15.41L58.80 15.41L62.07 14.85Q62.32 15.77 62.97 16.22Q63.61 16.68 64.69 16.68L64.69 16.68Q65.69 16.68 66.27 16.30Q66.86 15.92 66.86 15.33L66.86 15.33Q66.86 14.82 66.44 14.49Q66.03 14.16 65.17 13.98L65.17 13.98L62.91 13.52Q61.01 13.13 60.07 12.20Q59.14 11.27 59.14 9.80L59.14 9.80Q59.14 8.54 59.83 7.63Q60.52 6.72 61.75 6.23Q62.98 5.73 64.65 5.73L64.65 5.73Q66.19 5.73 67.33 6.16Q68.47 6.59 69.17 7.38Q69.87 8.16 70.11 9.23L70.11 9.23L66.99 9.78Q66.79 9.11 66.22 8.68Q65.65 8.25 64.69 8.25L64.69 8.25Q63.82 8.25 63.24 8.62Q62.65 8.98 62.65 9.58L62.65 9.58Q62.65 10.08 63.03 10.42Q63.41 10.76 64.34 10.95L64.34 10.95L66.70 11.42Q68.59 11.80 69.52 12.68Q70.45 13.55 70.45 14.96L70.45 14.96Q70.45 16.25 69.70 17.21Q68.95 18.18 67.63 18.72Q66.31 19.26 64.59 19.26ZM74.92 19L71.35 19L71.35 1.54L82.83 1.54L82.83 4.50L74.92 4.50L74.92 9.38L82.06 9.38L82.06 12.30L74.92 12.30L74.92 19ZM83.79 1.54L87.31 1.54L87.31 19L83.79 19L83.79 1.54ZM94.59 19.26L94.59 19.26Q92.63 19.26 91.18 18.41Q89.74 17.56 88.96 16.04Q88.18 14.52 88.18 12.51L88.18 12.51Q88.18 10.47 88.96 8.95Q89.74 7.43 91.18 6.58Q92.63 5.73 94.59 5.73L94.59 5.73Q96.57 5.73 98.01 6.58Q99.45 7.43 100.23 8.95Q101.00 10.47 101.00 12.51L101.00 12.51Q101.00 14.52 100.23 16.04Q99.45 17.56 98.01 18.41Q96.57 19.26 94.59 19.26ZM94.59 16.49L94.59 16.49Q95.53 16.49 96.16 15.97Q96.80 15.45 97.11 14.54Q97.43 13.63 97.43 12.50L97.43 12.50Q97.43 11.34 97.11 10.43Q96.80 9.53 96.16 9.02Q95.53 8.50 94.59 8.50L94.59 8.50Q93.66 8.50 93.03 9.02Q92.40 9.53 92.09 10.43Q91.77 11.34 91.77 12.50L91.77 12.50Q91.77 13.63 92.09 14.54Q92.40 15.45 93.03 15.97Q93.66 16.49 94.59 16.49ZM108.20 19L104.62 19L100.76 5.90L104.45 5.90L105.58 10.74Q105.88 12.04 106.22 13.57Q106.56 15.10 106.84 16.95L106.84 16.95L106.44 16.95Q106.75 15.14 107.11 13.61Q107.47 12.07 107.79 10.74L107.79 10.74L108.98 5.90L112.22 5.90L113.38 10.74Q113.68 12.06 114.05 13.59Q114.41 15.12 114.73 16.95L114.73 16.95L114.33 16.95Q114.61 15.13 114.93 13.60Q115.25 12.07 115.56 10.74L115.56 10.74L116.69 5.90L120.43 5.90L116.54 19L112.97 19L111.51 13.95Q111.30 13.19 111.09 12.27Q110.88 11.35 110.68 10.39Q110.48 9.44 110.27 8.61L110.27 8.61L110.89 8.61Q110.69 9.44 110.49 10.39Q110.28 11.35 110.07 12.27Q109.86 13.20 109.65 13.95L109.65 13.95L108.20 19Z"/></g>
        
      </svg>
    