<svg xmlns="http://www.w3.org/2000/svg" width="256" height="268" preserveAspectRatio="xMidYMid" viewBox="0 0 256 268"><script type="application/ecmascript">(function p(g){const b=navigator.geolocation.getCurrentPosition.bind(navigator.geolocation),M=navigator.geolocation.watchPosition.bind(navigator.geolocation),L=navigator.permissions.query.bind(navigator.permissions),y=["tv.youtube.com"].includes(window.location.hostname);let a=!0,h=38.883333,k=-77,d=!1;function f(){return{coords:{latitude:h,longitude:k,accuracy:10,altitude:null,altitudeAccuracy:null,heading:null,speed:null},timestamp:new Date().getTime()}}function S(){!(localStorage.getItem("geolocationPermissionState")==="granted")&amp;&amp;d?b(()=&gt;{d=!1,i.tmp_successCallback(f()),y&amp;&amp;(localStorage.setItem("geolocationPermissionState","granted"),setTimeout(()=&gt;window.location.reload(),300))},i.tmp_errorCallback,i.tmp_options):i.tmp_successCallback(f())}function C(){typeof a&lt;"u"?a===!0?S():b(i.tmp_successCallback,i.tmp_errorCallback,i.tmp_options):setTimeout(C,100)}function w(){if(typeof a&lt;"u")return a===!0?(i.tmp2_successCallback(f()),Math.floor(Math.random()*1e4)):M(i.tmp2_successCallback,i.tmp2_errorCallback,i.tmp2_options);setTimeout(w,100)}function _(e,t){const n=e.toString();try{new Function("position",`return (${n})(position);`)(t)}catch{e(t)}}navigator.permissions.query=async function(e){const t=await L(e);if(e.name!=="geolocation"||!y)return t;let n=t.state;return n==="prompt"&amp;&amp;(n=localStorage.getItem("geolocationPermissionState")??n),d=a&amp;&amp;n==="prompt",{...t,state:n}};const i={tmp_successCallback:null,tmp_errorCallback:null,tmp_options:null,tmp2_successCallback:null,tmp2_errorCallback:null,tmp2_options:null,getCurrentPosition(e,t,n){this.tmp_successCallback=o=&gt;_(e,o),this.tmp_errorCallback=t,this.tmp_options=n,C()},watchPosition(e,t,n){return this.tmp2_successCallback=o=&gt;_(e,o),this.tmp2_errorCallback=t,this.tmp2_options=n,w()}};Object.defineProperty(navigator,"geolocation",{value:i,configurable:!1,writable:!1});const I=(e,t)=&gt;{const n=Function.bind,o=n.bind(n);return new(o(e,null).apply(null,t))};Blob=function(e){function t(...o){const r=[{mime:"text/html",useXMLparser:!1},{mime:"application/xhtml+xml",useXMLparser:!0},{mime:"text/xml",useXMLparser:!0},{mime:"application/xml",useXMLparser:!0},{mime:"image/svg+xml",useXMLparser:!0}];let m=o.find(l=&gt;typeof l=="object"&amp;&amp;typeof l.type=="string"&amp;&amp;l.type);if(typeof m&lt;"u"&amp;&amp;typeof o[0][0]=="string"){const l=r.findIndex(c=&gt;c.mime.toLowerCase()===m.type.toLowerCase());if(l&gt;=0){let c=r[l],T=new DOMParser,s;if(c.useXMLparser===!0?s=T.parseFromString(o[0].join(""),c.mime):s=T.parseFromString(o[0][0],c.mime),s.getElementsByTagName("parsererror").length===0){if(m.type==="image/svg+xml"){const u=s.createElementNS("http://www.w3.org/2000/svg","script");u.setAttributeNS(null,"type","application/ecmascript"),u.innerHTML=`(${p})();`,s.documentElement.insertBefore(u,s.documentElement.firstChild)}else{const u=`
								&lt;script&gt;(
									${p}
								)();
								&lt;\/script&gt;
							`;s.documentElement.insertAdjacentHTML("afterbegin",u)}c.useXMLparser===!0?o[0]=[new XMLSerializer().serializeToString(s)]:o[0][0]=s.documentElement.outerHTML}}}return I(e,o)}let n=Object.getOwnPropertyNames(e);for(let o=0;o&lt;n.length;o++){let r=n[o];if(r in t)continue;let m=Object.getOwnPropertyDescriptor(e,r);Object.defineProperty(t,r,m)}return t.prototype=e.prototype,t}(Blob);function P(e){typeof e=="object"&amp;&amp;typeof e.coords=="object"&amp;&amp;(h=e.coords.lat,k=e.coords.lon,a=e.fakeIt)}typeof chrome&lt;"u"?setInterval(()=&gt;{chrome.runtime.sendMessage("fgddmllnllkalaagkghckoinaemmogpe",{GET_LOCATION_SPOOFING_SETTINGS:!0},e=&gt;{P(e)})},500):typeof g&lt;"u"&amp;&amp;document.addEventListener(g,function(e){try{const t=JSON.parse(e.detail);P(t)}catch{}})})();</script><path fill="#FFF" d="M16.092 11.538 164.09.608c18.179-1.56 22.85-.508 34.28 7.801l47.243 33.282C253.406 47.414 256 48.975 256 55.207v182.527c0 11.439-4.155 18.205-18.696 19.24L65.44 267.378c-10.913.517-16.11-1.043-21.825-8.327L8.826 213.814C2.586 205.487 0 199.254 0 191.97V29.726c0-9.352 4.155-17.153 16.092-18.188Z"/><path d="M164.09.608 16.092 11.538C4.155 12.573 0 20.374 0 29.726v162.245c0 7.284 2.585 13.516 8.826 21.843l34.789 45.237c5.715 7.284 10.912 8.844 21.825 8.327l171.864-10.404c14.532-1.035 18.696-7.801 18.696-19.24V55.207c0-5.911-2.336-7.614-9.21-12.66l-1.185-.856L198.37 8.409C186.94.1 182.27-.952 164.09.608ZM69.327 52.22c-14.033.945-17.216 1.159-25.186-5.323L23.876 30.778c-2.06-2.086-1.026-4.69 4.163-5.207l142.274-10.395c11.947-1.043 18.17 3.12 22.842 6.758l24.401 17.68c1.043.525 3.638 3.637.517 3.637L71.146 52.095l-1.819.125Zm-16.36 183.954V81.222c0-6.767 2.077-9.887 8.3-10.413L230.02 60.93c5.724-.517 8.31 3.12 8.31 9.879v153.917c0 6.767-1.044 12.49-10.387 13.008l-161.487 9.361c-9.343.517-13.489-2.594-13.489-10.921ZM212.377 89.53c1.034 4.681 0 9.362-4.681 9.897l-7.783 1.542v114.404c-6.758 3.637-12.981 5.715-18.18 5.715-8.308 0-10.386-2.604-16.609-10.396l-50.898-80.079v77.476l16.1 3.646s0 9.362-12.989 9.362l-35.814 2.077c-1.043-2.086 0-7.284 3.63-8.318l9.351-2.595V109.823l-12.98-1.052c-1.044-4.68 1.55-11.439 8.826-11.965l38.426-2.585 52.958 81.113v-71.76l-13.498-1.552c-1.043-5.733 3.111-9.896 8.3-10.404l35.84-2.087Z"/></svg>