<svg width="2361" height="588" viewBox="0 0 2361 588" fill="none" xmlns="http://www.w3.org/2000/svg">
<path d="M0.448756 264.688L311.456 523.162L236.155 588.01L0 391.708L0.448756 264.688Z" fill="#0F172A"/>
<path d="M324.371 75.0556L234.37 0L0.448756 200.735L0 391.708L143.472 510.728L144.36 229.61L324.371 75.0556Z" fill="#0C665B"/>
<path d="M159.069 64.3901L234.37 0L447.798 177.197L318.138 288.672L318.577 197.186L159.069 64.3901Z" fill="#0D9488"/>
<path d="M272.684 329.972V238.486L203.177 298.89V359.732L354.676 485.858L474.085 383.269L474.534 230.047L316.353 366.391L272.684 329.972Z" fill="#0F172A"/>
<path d="M642.614 407.01V174.282H738.75C756.174 174.282 771.212 177.692 783.864 184.51C796.591 191.252 806.402 200.684 813.295 212.805C820.189 224.851 823.636 238.866 823.636 254.851C823.636 270.911 820.114 284.964 813.068 297.01C806.098 308.979 796.136 318.26 783.182 324.851C770.227 331.442 754.848 334.737 737.045 334.737H677.727V290.419H726.591C735.076 290.419 742.159 288.942 747.841 285.987C753.598 283.032 757.955 278.904 760.909 273.601C763.864 268.222 765.341 261.972 765.341 254.851C765.341 247.654 763.864 241.442 760.909 236.214C757.955 230.911 753.598 226.82 747.841 223.942C742.083 221.063 735 219.623 726.591 219.623H698.864V407.01H642.614ZM851.364 407.01V232.464H905.341V264.282H907.159C910.341 252.767 915.53 244.207 922.727 238.601C929.924 232.919 938.295 230.078 947.841 230.078C950.417 230.078 953.068 230.267 955.795 230.646C958.523 230.949 961.061 231.442 963.409 232.123V280.419C960.758 279.51 957.273 278.79 952.955 278.26C948.712 277.729 944.924 277.464 941.591 277.464C935 277.464 929.053 278.942 923.75 281.896C918.523 284.775 914.394 288.828 911.364 294.055C908.409 299.207 906.932 305.267 906.932 312.237V407.01H851.364ZM1028.69 409.964C1017.56 409.964 1007.67 408.108 999.034 404.396C990.473 400.608 983.693 394.926 978.693 387.351C973.769 379.699 971.307 370.116 971.307 358.601C971.307 348.904 973.011 340.722 976.42 334.055C979.83 327.389 984.527 321.972 990.511 317.805C996.496 313.639 1003.39 310.495 1011.19 308.373C1019 306.176 1027.33 304.699 1036.19 303.942C1046.12 303.032 1054.11 302.086 1060.17 301.101C1066.23 300.04 1070.63 298.563 1073.35 296.669C1076.16 294.699 1077.56 291.934 1077.56 288.373V287.805C1077.56 281.972 1075.55 277.464 1071.53 274.282C1067.52 271.101 1062.1 269.51 1055.28 269.51C1047.94 269.51 1042.03 271.101 1037.56 274.282C1033.09 277.464 1030.25 281.858 1029.03 287.464L977.784 285.646C979.299 275.04 983.201 265.57 989.489 257.237C995.852 248.828 1004.56 242.237 1015.62 237.464C1026.76 232.616 1040.13 230.192 1055.74 230.192C1066.88 230.192 1077.14 231.517 1086.53 234.169C1095.93 236.745 1104.11 240.532 1111.08 245.532C1118.05 250.457 1123.43 256.517 1127.22 263.714C1131.08 270.911 1133.01 279.131 1133.01 288.373V407.01H1080.74V382.692H1079.38C1076.27 388.601 1072.29 393.601 1067.44 397.692C1062.67 401.782 1057.03 404.851 1050.51 406.896C1044.07 408.942 1036.8 409.964 1028.69 409.964ZM1045.85 373.601C1051.84 373.601 1057.22 372.389 1061.99 369.964C1066.84 367.54 1070.7 364.207 1073.58 359.964C1076.46 355.646 1077.9 350.646 1077.9 344.964V328.373C1076.31 329.207 1074.38 329.964 1072.1 330.646C1069.91 331.328 1067.48 331.972 1064.83 332.578C1062.18 333.184 1059.45 333.714 1056.65 334.169C1053.84 334.623 1051.16 335.04 1048.58 335.419C1043.35 336.252 1038.88 337.54 1035.17 339.282C1031.53 341.025 1028.73 343.298 1026.76 346.101C1024.87 348.828 1023.92 352.086 1023.92 355.873C1023.92 361.631 1025.97 366.025 1030.06 369.055C1034.22 372.086 1039.49 373.601 1045.85 373.601ZM1214.26 232.464L1243.01 289.964L1272.78 232.464H1328.81L1280.06 319.737L1330.62 407.01H1275.06L1243.01 349.055L1211.76 407.01H1155.4L1206.08 319.737L1157.9 232.464H1214.26ZM1354.18 407.01V232.464H1409.74V407.01H1354.18ZM1382.02 212.123C1374.21 212.123 1367.51 209.548 1361.9 204.396C1356.3 199.169 1353.49 192.881 1353.49 185.532C1353.49 178.26 1356.3 172.048 1361.9 166.896C1367.51 161.669 1374.21 159.055 1382.02 159.055C1389.9 159.055 1396.6 161.669 1402.13 166.896C1407.74 172.048 1410.54 178.26 1410.54 185.532C1410.54 192.881 1407.74 199.169 1402.13 204.396C1396.6 209.548 1389.9 212.123 1382.02 212.123ZM1597.5 285.76L1546.48 287.123C1545.95 283.487 1544.51 280.267 1542.16 277.464C1539.81 274.586 1536.74 272.351 1532.95 270.76C1529.24 269.093 1524.92 268.26 1520 268.26C1513.56 268.26 1508.07 269.548 1503.52 272.123C1499.05 274.699 1496.86 278.184 1496.93 282.578C1496.86 285.987 1498.22 288.942 1501.02 291.442C1503.9 293.942 1509.02 295.949 1516.36 297.464L1550 303.828C1567.42 307.161 1580.38 312.692 1588.86 320.419C1597.42 328.146 1601.74 338.373 1601.82 351.101C1601.74 363.07 1598.18 373.487 1591.14 382.351C1584.17 391.214 1574.62 398.108 1562.5 403.032C1550.38 407.881 1536.52 410.305 1520.91 410.305C1495.98 410.305 1476.33 405.192 1461.93 394.964C1447.61 384.661 1439.43 370.873 1437.39 353.601L1492.27 352.237C1493.48 358.601 1496.63 363.449 1501.7 366.782C1506.78 370.116 1513.26 371.782 1521.14 371.782C1528.26 371.782 1534.05 370.457 1538.52 367.805C1542.99 365.154 1545.27 361.631 1545.34 357.237C1545.27 353.298 1543.52 350.154 1540.11 347.805C1536.7 345.381 1531.36 343.487 1524.09 342.123L1493.64 336.328C1476.14 333.146 1463.11 327.275 1454.55 318.714C1445.98 310.078 1441.74 299.093 1441.82 285.76C1441.74 274.093 1444.85 264.131 1451.14 255.873C1457.42 247.54 1466.36 241.176 1477.95 236.782C1489.55 232.389 1503.22 230.192 1518.98 230.192C1542.61 230.192 1561.25 235.154 1574.89 245.078C1588.52 254.926 1596.06 268.487 1597.5 285.76ZM1629.18 407.01V174.282H1788.04V219.964H1685.43V267.692H1777.93V313.487H1685.43V407.01H1629.18ZM1871.93 174.282V407.01H1816.36V174.282H1871.93ZM1988.78 410.305C1970.45 410.305 1954.69 406.555 1941.51 399.055C1928.4 391.479 1918.29 380.949 1911.16 367.464C1904.12 353.904 1900.6 338.184 1900.6 320.305C1900.6 302.351 1904.12 286.631 1911.16 273.146C1918.29 259.586 1928.4 249.055 1941.51 241.555C1954.69 233.979 1970.45 230.192 1988.78 230.192C2007.11 230.192 2022.83 233.979 2035.94 241.555C2049.12 249.055 2059.23 259.586 2066.28 273.146C2073.4 286.631 2076.96 302.351 2076.96 320.305C2076.96 338.184 2073.4 353.904 2066.28 367.464C2059.23 380.949 2049.12 391.479 2035.94 399.055C2022.83 406.555 2007.11 410.305 1988.78 410.305ZM1989.12 368.373C1995.79 368.373 2001.43 366.328 2006.05 362.237C2010.67 358.146 2014.2 352.464 2016.62 345.192C2019.12 337.919 2020.37 329.51 2020.37 319.964C2020.37 310.267 2019.12 301.782 2016.62 294.51C2014.2 287.237 2010.67 281.555 2006.05 277.464C2001.43 273.373 1995.79 271.328 1989.12 271.328C1982.23 271.328 1976.39 273.373 1971.62 277.464C1966.92 281.555 1963.32 287.237 1960.82 294.51C1958.4 301.782 1957.19 310.267 1957.19 319.964C1957.19 329.51 1958.4 337.919 1960.82 345.192C1963.32 352.464 1966.92 358.146 1971.62 362.237C1976.39 366.328 1982.23 368.373 1989.12 368.373ZM2134.29 407.01L2088.84 232.464H2144.63L2168.15 344.282H2169.63L2194.86 232.464H2249.29L2275.2 343.487H2276.68L2299.52 232.464H2355.31L2309.74 407.01H2250.31L2223.04 305.305H2221.11L2193.84 407.01H2134.29Z" fill="#1C1C1C"/>
</svg>
