<svg width="3500" height="3400" viewBox="0 0 3500 3400" fill="none" xmlns="http://www.w3.org/2000/svg">
<path d="M3120.58 641.909L3465.5 174.586L3035.26 546.681C2715.76 211.619 2258.29 0 1749.99 0C784.23 0 0 761.826 0 1700.01C0 2639.94 784.23 3400 1749.99 3400C2717.57 3400 3499.98 2638.18 3499.98 1700.01C3501.8 1299.69 3358.39 932.883 3120.58 641.909ZM2968.09 2262.55C2968.09 2606.44 2681.26 2883.31 2329.09 2883.31H1172.71C818.724 2883.31 533.711 2604.67 533.711 2262.55V1139.21C533.711 795.329 820.534 518.465 1172.71 518.465H2329.09C2525.15 518.465 2699.42 603.113 2815.6 737.138L1744.55 1666.49L1016.59 1186.83L1543.04 2170.85C1546.67 2176.14 1550.31 2181.43 1555.75 2186.73C1557.56 2190.25 1559.38 2192.01 1561.2 2195.54C1566.65 2202.6 1570.27 2209.65 1577.54 2214.94C1582.98 2220.23 1588.43 2223.75 1593.88 2229.05C1661.04 2287.24 1749.99 2306.64 1833.49 2287.24H1835.31C1849.83 2283.72 1864.36 2278.43 1878.88 2271.37C1880.7 2269.61 1882.51 2269.61 1886.15 2267.85C1898.85 2262.55 1909.74 2255.5 1922.45 2246.68C1926.08 2244.92 1929.71 2241.39 1933.34 2239.63C1938.79 2236.1 1946.05 2232.57 1951.5 2227.29C1955.13 2223.76 1958.75 2218.47 1962.39 2214.94C1964.2 2213.18 1966.02 2211.41 1967.84 2209.65L1973.28 2202.6C1980.54 2193.78 1987.8 2184.96 1993.25 2176.14L2922.71 909.956C2951.75 980.499 2968.09 1058.09 2968.09 1139.21V2262.55Z" fill="#0070E0"/>
</svg>
