<svg xmlns="http://www.w3.org/2000/svg" xmlns:xlink="http://www.w3.org/1999/xlink" xmlns:inkscape="http://www.inkscape.org/namespaces/inkscape" version="1.1" width="1400" height="475" viewBox="0 0 1400 475">
<defs>
<clipPath id="clip_0">
<path transform="matrix(1,0,0,-1,0,475)" d="M0 475H1400V0H0Z"/>
</clipPath>
</defs>
<g inkscape:groupmode="layer" inkscape:label="WordPress">
<g clip-path="url(#clip_0)">
<path transform="matrix(1,0,0,-1,780.927,286.3284)" d="M0 0H-1.846C-11.337 0-12.655 2.373-12.655 14.501V71.712H0C27.418 71.712 32.428 51.677 32.428 36.121 32.428 20.038 27.418 0 0 0M-111.258 36.65V71.712H-100.45C-88.586 71.712-83.311 63.541-83.311 54.05-83.311 44.821-88.586 36.65-100.45 36.65ZM-.791 79.621H-47.984V74.614C-33.221 74.614-30.849 71.45-30.849 52.73V18.982C-30.849 .264-33.221-3.164-47.984-3.164-59.319-1.582-66.966 4.484-77.513 16.083L-89.638 29.264C-73.294 32.166-64.594 42.448-64.594 54.05-64.594 68.548-76.984 79.621-100.185 79.621H-146.588V74.614C-131.825 74.614-129.452 71.45-129.452 52.73V18.982C-129.452 .264-131.825-3.164-146.588-3.164V-8.171H-94.122V-3.164C-108.885-3.164-111.258 .264-111.258 18.982V28.473H-106.777L-77.513-8.171H-.791C36.912-8.171 53.256 11.864 53.256 35.859 53.256 59.848 36.912 79.621-.791 79.621" fill="#32373c"/>
<path transform="matrix(1,0,0,-1,487.4928,259.4371)" d="M0 0 18.191 53.789C23.466 69.342 21.093 73.823 4.219 73.823V79.098H53.786V73.823C37.176 73.823 33.222 69.869 26.63 50.622L-3.428-39.546H-6.854L-33.748 42.977-61.165-39.546H-64.594L-93.858 50.622C-100.185 69.869-104.404 73.823-119.696 73.823V79.098H-61.165V73.823C-76.722 73.823-80.941 70.133-75.402 53.789L-57.74 0-31.111 79.098H-26.1Z" fill="#32373c"/>
<path transform="matrix(1,0,0,-1,577.1284,211.4526)" d="M0 0C-24.254 0-32.692-21.881-32.692-39.017-32.692-56.42-24.254-78.039 0-78.039 24.522-78.039 32.957-56.42 32.957-39.017 32.957-21.881 24.522 0 0 0M0-86.475C-28.999-86.475-52.73-65.12-52.73-39.017-52.73-13.181-28.999 8.177 0 8.177 29.003 8.177 52.73-13.181 52.73-39.017 52.73-65.12 29.003-86.475 0-86.475" fill="#32373c"/>
<path transform="matrix(1,0,0,-1,893.4993,189.83011)" d="M0 0H-15.027V-45.876H0C14.766-45.876 21.619-35.595 21.619-23.204 21.619-10.55 14.766 0 0 0M5.801-99.397V-104.669H-54.573V-99.397C-36.908-99.397-33.745-94.916-33.745-68.549V-26.368C-33.745 0-36.908 4.216-54.573 4.216V9.491H0C27.156 9.491 42.187-4.484 42.187-23.204 42.187-41.396 27.156-55.632 0-55.632H-15.027V-68.549C-15.027-94.916-11.864-99.397 5.801-99.397" fill="#32373c"/>
<path transform="matrix(1,0,0,-1,977.0784,249.6784)" d="M0 0V35.062H10.808C22.672 35.062 27.947 26.891 27.947 17.4 27.947 8.171 22.672 0 10.808 0ZM139.728-20.041 138.411-24.786C136.038-33.486 133.136-36.65 114.419-36.65H110.726C97.018-36.65 94.646-33.486 94.646-14.766V-2.64C115.209-2.64 116.791-4.484 116.791-18.194H121.802V21.09H116.791C116.791 7.38 115.209 5.537 94.646 5.537V35.062H109.144C127.864 35.062 130.763 31.898 133.136 23.198L134.456 18.191H138.672L136.829 42.971H59.316V37.964C74.079 37.964 76.451 34.801 76.451 16.08V-17.668C76.451-34.791 74.435-39.105 62.796-39.719 51.732-38.031 44.136-31.996 33.745-20.567L21.616-7.386C37.964-4.484 46.664 5.798 46.664 17.4 46.664 31.898 34.274 42.971 11.073 42.971H-35.33V37.964C-20.567 37.964-18.194 34.801-18.194 16.08V-17.668C-18.194-36.385-20.567-39.814-35.33-39.814V-44.821H17.135V-39.814C2.373-39.814 0-36.385 0-17.668V-8.177H4.481L33.745-44.821H142.101L143.682-20.041Z" fill="#32373c"/>
<path transform="matrix(1,0,0,-1,1170.3272,297.9277)" d="M0 0C-10.547 0-19.776 5.537-23.73 8.965-25.048 7.645-27.42 3.69-27.947 0H-32.957V36.382H-27.685C-25.574 18.982-13.448 8.7 2.108 8.7 10.544 8.7 17.401 13.446 17.401 21.355 17.401 28.209 11.335 33.484 .526 38.491L-14.501 45.609C-25.048 50.622-32.957 59.322-32.957 70.921-32.957 83.576-21.093 94.384-4.745 94.384 3.955 94.384 11.335 91.22 15.819 87.531 17.136 88.586 18.453 91.488 19.247 94.652H24.254V63.538H18.718C16.871 75.931 10.018 86.213-3.954 86.213-11.337 86.213-18.194 81.994-18.194 75.402-18.194 68.549-12.657 64.858 0 59.057L14.498 51.939C27.156 45.877 32.163 36.118 32.163 28.209 32.163 11.599 17.662 0 0 0" fill="#32373c"/>
<path transform="matrix(1,0,0,-1,1250.0474,297.9277)" d="M0 0C-10.547 0-19.776 5.537-23.73 8.965-25.048 7.645-27.421 3.69-27.947 0H-32.957V36.382H-27.685C-25.574 18.982-13.449 8.7 2.108 8.7 10.544 8.7 17.4 13.446 17.4 21.355 17.4 28.209 11.334 33.484 .526 38.491L-14.501 45.609C-25.048 50.622-32.957 59.322-32.957 70.921-32.957 83.576-21.093 94.384-4.745 94.384 3.955 94.384 11.334 91.22 15.818 87.531 17.136 88.586 18.453 91.488 19.244 94.652H24.254V63.538H18.717C16.871 75.931 10.017 86.213-3.955 86.213-11.337 86.213-18.194 81.994-18.194 75.402-18.194 68.549-12.658 64.858 0 59.057L14.498 51.939C27.156 45.877 32.163 36.118 32.163 28.209 32.163 11.599 17.662 0 0 0" fill="#32373c"/>
<path transform="matrix(1,0,0,-1,237.2879,118.644107)" d="M0 0C-65.525 0-118.644-53.119-118.644-118.644-118.644-184.169-65.525-237.288 0-237.288 65.525-237.288 118.644-184.169 118.644-118.644 118.644-53.119 65.525 0 0 0M0-7.119C15.059-7.119 29.664-10.066 43.409-15.88 50.015-18.674 56.388-22.133 62.35-26.161 68.257-30.152 73.812-34.735 78.86-39.784 83.909-44.832 88.492-50.387 92.483-56.294 96.511-62.256 99.97-68.629 102.764-75.235 108.578-88.98 111.525-103.585 111.525-118.644 111.525-133.703 108.578-148.308 102.764-162.053 99.97-168.659 96.511-175.032 92.483-180.994 88.492-186.901 83.909-192.456 78.86-197.504 73.812-202.553 68.257-207.136 62.35-211.127 56.388-215.155 50.015-218.614 43.409-221.408 29.664-227.222 15.059-230.169 0-230.169-15.059-230.169-29.664-227.222-43.408-221.408-50.015-218.614-56.388-215.155-62.35-211.127-68.257-207.136-73.812-202.553-78.86-197.504-83.909-192.456-88.492-186.901-92.483-180.994-96.51-175.032-99.97-168.659-102.764-162.053-108.578-148.308-111.525-133.703-111.525-118.644-111.525-103.585-108.578-88.98-102.764-75.235-99.97-68.629-96.51-62.256-92.483-56.294-88.492-50.387-83.909-44.832-78.86-39.784-73.812-34.735-68.257-30.152-62.35-26.161-56.388-22.133-50.015-18.674-43.408-15.88-29.664-10.066-15.059-7.119 0-7.119" fill="#32373c"/>
<path transform="matrix(1,0,0,-1,324.0497,189.85391)" d="M0 0C.424-3.149 .665-6.527 .665-10.166 .665-20.195-1.214-31.473-6.856-45.577L-37.053-132.887C-7.659-115.75 12.108-83.905 12.108-47.431 12.108-30.241 7.716-14.081 0 0M-85.025-56.079-114.694-142.276C-105.833-144.882-96.466-146.304-86.762-146.304-75.248-146.304-64.203-144.317-53.927-140.699-54.192-140.276-54.436-139.827-54.637-139.336ZM-20.016-42.444C-20.016-30.221-24.407-21.762-28.167-15.178-33.179-7.03-37.879-.137-37.879 8.011-37.879 17.098-30.988 25.558-21.276 25.558-20.837 25.558-20.422 25.505-19.996 25.478-37.586 41.595-61.022 51.436-86.762 51.436-121.305 51.436-151.691 33.712-169.371 6.874-167.049 6.801-164.862 6.754-163.007 6.754-152.668 6.754-136.656 8.011-136.656 8.011-131.329 8.323-130.699 .493-136.024-.137-136.024-.137-141.382-.764-147.339-1.076L-111.336-108.17-89.696-43.28-105.099-1.076C-110.426-.764-115.469-.137-115.469-.137-120.799 .178-120.174 8.323-114.842 8.011-114.842 8.011-98.518 6.754-88.803 6.754-78.464 6.754-62.449 8.011-62.449 8.011-57.12 8.323-56.493 .493-61.82-.137-61.82-.137-67.183-.764-73.134-1.076L-37.404-107.355-27.204-75.035C-22.673-60.911-20.016-50.904-20.016-42.444M-185.632-47.431C-185.632-86.564-162.891-120.385-129.907-136.409L-177.071-7.194C-182.557-19.489-185.632-33.096-185.632-47.431" fill="#32373c"/>
</g>
</g>
</svg>
